<svg xmlns="http://www.w3.org/2000/svg" version="1.1" xmlns:xlink="http://www.w3.org/1999/xlink" xmlns:svgjs="http://svgjs.dev/svgjs" width="2000" height="777" viewBox="0 0 2000 777"><g transform="matrix(1,0,0,1,-1.2121212121212466,0.5766746357343777)"><svg viewBox="0 0 396 154" data-background-color="#ffffff" preserveAspectRatio="xMidYMid meet" height="777" width="2000" xmlns="http://www.w3.org/2000/svg" xmlns:xlink="http://www.w3.org/1999/xlink"><g id="tight-bounds" transform="matrix(1,0,0,1,0.2400000000000091,-0.11429587374915684)"><svg viewBox="0 0 395.52 154.2285917474983" height="154.2285917474983" width="395.52"><g><svg viewBox="0 0 554.5044142242342 216.22278247263125" height="154.2285917474983" width="395.52"><g><rect width="8.535385969006485" height="157.2387093957991" x="128.10508592798567" y="29.492036538416073" fill="#22902f" opacity="1" stroke-width="0" stroke="transparent" fill-opacity="1" class="rect-o-0" data-fill-palette-color="primary" rx="1%" id="o-0" data-palette-color="#22902f"></rect></g><g transform="matrix(1,0,0,1,158.98441422423426,29.883177606564814)"><svg viewBox="0 0 395.52 156.45642725950162" height="156.45642725950162" width="395.52"><g id="textblocktransform"><svg viewBox="0 0 395.52 156.45642725950162" height="156.45642725950162" width="395.52" id="textblock"><g><svg viewBox="0 0 395.52 94.64724210526316" height="94.64724210526316" width="395.52"><g transform="matrix(1,0,0,1,0,0)"><svg width="395.52" viewBox="0.75 -34.099998474121094 142.49000549316406 34.099998474121094" height="94.64724210526316" data-palette-color="#22902f"><g class="wordmark-text-0" data-fill-palette-color="primary" id="text-0"><path d="M15.2 0L11.5 0 11.5-31 0.75-31 0.75-34.1 25.95-34.1 25.95-31 15.2-31 15.2 0ZM53.75 0L49.8 0 41.15-15.05 34.4-15.05 34.4 0 30.65 0 30.65-34.1 42.05-34.1Q45.15-34.1 47.5-32.9 49.85-31.7 51.1-29.53 52.35-27.35 52.35-24.55L52.35-24.55Q52.35-21.15 50.3-18.73 48.25-16.3 44.85-15.45L44.85-15.45 53.75 0ZM34.4-31L34.4-18.15 41.55-18.15Q44.85-18.15 46.62-19.9 48.4-21.65 48.4-24.55L48.4-24.55Q48.4-27.45 46.62-29.23 44.85-31 41.55-31L41.55-31 34.4-31ZM78.9 0L59.65 0 59.65-34.1 78.75-34.1 78.75-30.95 63.4-30.95 63.4-19.05 75.4-19.05 75.4-16 63.4-16 63.4-3.1 78.9-3.1 78.9 0ZM88.59 0L84.84 0 84.84-34.1 88.84-34.1 106.19-5.65 106.19-34.1 109.94-34.1 109.94 0 105.94 0 88.59-28.35 88.59 0ZM117.94 0L117.94-34.1 126.39-34.1Q131.64-34.1 135.44-32.08 139.24-30.05 141.24-26.2 143.24-22.35 143.24-17L143.24-17Q143.24-9 138.79-4.5 134.34 0 126.39 0L126.39 0 117.94 0ZM121.69-3.4L126.29-3.4Q132.39-3.4 135.84-6.75 139.29-10.1 139.29-17L139.29-17Q139.29-23.95 135.84-27.3 132.39-30.65 126.29-30.65L126.29-30.65 121.69-30.65 121.69-3.4Z" fill="#22902f" data-fill-palette-color="primary"></path></g></svg></g></svg></g><g transform="matrix(1,0,0,1,0,116.99118443250526)"><svg viewBox="0 0 232.209792 39.46524282699636" height="39.46524282699636" width="232.209792"><g transform="matrix(1,0,0,1,0,0)"><svg width="232.209792" viewBox="2.0799999237060547 -37.54999923706055 288.2799987792969 49" height="39.46524282699636" data-palette-color="#db5107"><path d="M28.49-8.91L28.49-8.91Q28.49-7.28 28.08-5.97 27.66-4.66 26.98-3.67 26.29-2.69 25.39-1.99 24.49-1.29 23.5-0.85 22.51-0.42 21.5-0.21 20.48 0 19.58 0L19.58 0 2.39 0 2.39-6.35 19.53-6.35Q20.83-6.35 21.48-7.01 22.14-7.67 22.14-8.91L22.14-8.91Q22.02-11.45 19.58-11.45L19.58-11.45 9.74-11.45Q7.64-11.45 6.18-12.18 4.71-12.92 3.8-14.01 2.88-15.11 2.48-16.38 2.08-17.65 2.08-18.75L2.08-18.75Q2.08-20.87 2.83-22.33 3.59-23.78 4.74-24.68 5.88-25.59 7.23-25.99 8.57-26.39 9.74-26.39L9.74-26.39 25.34-26.39 25.34-20.04 9.79-20.04Q9.3-20.04 9.02-19.93 8.74-19.82 8.61-19.64 8.47-19.46 8.45-19.25 8.42-19.04 8.42-18.85L8.42-18.85Q8.45-18.46 8.57-18.24 8.69-18.02 8.87-17.92 9.06-17.82 9.29-17.81 9.52-17.8 9.74-17.8L9.74-17.8 19.58-17.8Q22.02-17.8 23.73-16.92 25.44-16.04 26.49-14.71 27.54-13.38 28.02-11.82 28.49-10.25 28.49-8.91ZM56.49-26.39L56.49-20.04 45.41-20.04 45.41 0 38.99 0 38.99-20.04 30.73-20.04 30.73-26.39 38.99-26.39 38.99-35.01 45.41-35.01 45.41-26.39 56.49-26.39ZM86.4-17.65L86.4-8.74Q86.4-7.42 85.93-5.9 85.47-4.37 84.43-3.06 83.39-1.76 81.72-0.88 80.05 0 77.66 0L77.66 0 66.21 0Q64.89 0 63.36-0.46 61.84-0.93 60.53-1.97 59.22-3 58.34-4.68 57.47-6.35 57.47-8.74L57.47-8.74Q57.47-10.06 57.93-11.6 58.39-13.13 59.43-14.44 60.47-15.75 62.14-16.63 63.81-17.5 66.21-17.5L66.21-17.5 77.66-17.5 77.66-11.45 66.21-11.45Q64.91-11.45 64.2-10.66 63.5-9.86 63.5-8.69L63.5-8.69Q63.5-7.45 64.31-6.75 65.13-6.05 66.25-6.05L66.25-6.05 77.66-6.05Q78.95-6.05 79.66-6.84 80.37-7.62 80.37-8.79L80.37-8.79 80.37-17.65Q80.37-18.9 79.6-19.63 78.83-20.36 77.66-20.36L77.66-20.36 63.72-20.36 63.72-26.39 77.66-26.39Q78.97-26.39 80.5-25.93 82.03-25.46 83.33-24.43 84.64-23.39 85.52-21.72 86.4-20.04 86.4-17.65L86.4-17.65ZM115.72-26.39L115.72-20.04 104.63-20.04 104.63 0 98.21 0 98.21-20.04 89.96-20.04 89.96-26.39 98.21-26.39 98.21-35.01 104.63-35.01 104.63-26.39 115.72-26.39ZM126.33-37.55L126.33-31.81 119.99-31.81 119.99-37.55 126.33-37.55ZM126.33-26.39L126.33 0 119.99 0 119.99-26.39 126.33-26.39ZM161.12-17.5L161.12-8.91Q161.12-7.28 160.71-5.97 160.29-4.66 159.61-3.67 158.92-2.69 158.02-1.99 157.12-1.29 156.13-0.85 155.14-0.42 154.13-0.21 153.11 0 152.21 0L152.21 0 140.76 0Q139.44 0 137.88-0.46 136.32-0.93 134.99-1.99 133.65-3.05 132.76-4.75 131.87-6.45 131.87-8.91L131.87-8.91 131.87-17.5Q131.87-19.95 132.76-21.64 133.65-23.34 134.99-24.4 136.32-25.46 137.88-25.93 139.44-26.39 140.76-26.39L140.76-26.39 152.21-26.39Q154.65-26.39 156.36-25.51 158.07-24.63 159.12-23.3 160.17-21.97 160.64-20.41 161.12-18.85 161.12-17.5L161.12-17.5ZM154.77-8.91L154.77-17.46Q154.77-18.77 154.11-19.41 153.45-20.04 152.21-20.04L152.21-20.04 140.81-20.04Q139.54-20.04 138.88-19.4 138.22-18.75 138.22-17.5L138.22-17.5 138.22-8.91Q138.22-7.67 138.88-7.01 139.54-6.35 140.81-6.35L140.81-6.35 152.21-6.35Q153.5-6.35 154.14-7.01 154.77-7.67 154.77-8.91L154.77-8.91ZM195.76-14.65L195.76 0 189.41 0 189.41-14.65Q189.41-15.89 188.99-16.88 188.56-17.87 187.83-18.58 187.09-19.29 186.11-19.67 185.12-20.04 183.97-20.04L183.97-20.04 172.86-20.04 172.86 0 166.51 0 166.51-23.24Q166.51-23.9 166.76-24.48 167-25.05 167.44-25.48 167.88-25.9 168.47-26.15 169.05-26.39 169.71-26.39L169.71-26.39 184.02-26.39Q185.21-26.39 186.55-26.12 187.88-25.85 189.18-25.26 190.49-24.66 191.67-23.74 192.86-22.83 193.77-21.52 194.69-20.21 195.22-18.51 195.76-16.8 195.76-14.65L195.76-14.65ZM228.57-17.65L228.57-8.74Q228.57-7.42 228.11-5.9 227.64-4.37 226.61-3.06 225.57-1.76 223.9-0.88 222.22 0 219.83 0L219.83 0 208.38 0Q207.06 0 205.54-0.46 204.01-0.93 202.7-1.97 201.4-3 200.52-4.68 199.64-6.35 199.64-8.74L199.64-8.74Q199.64-10.06 200.1-11.6 200.57-13.13 201.61-14.44 202.64-15.75 204.32-16.63 205.99-17.5 208.38-17.5L208.38-17.5 219.83-17.5 219.83-11.45 208.38-11.45Q207.09-11.45 206.38-10.66 205.67-9.86 205.67-8.69L205.67-8.69Q205.67-7.45 206.49-6.75 207.31-6.05 208.43-6.05L208.43-6.05 219.83-6.05Q221.13-6.05 221.83-6.84 222.54-7.62 222.54-8.79L222.54-8.79 222.54-17.65Q222.54-18.9 221.77-19.63 221-20.36 219.83-20.36L219.83-20.36 205.89-20.36 205.89-26.39 219.83-26.39Q221.15-26.39 222.68-25.93 224.2-25.46 225.51-24.43 226.81-23.39 227.69-21.72 228.57-20.04 228.57-17.65L228.57-17.65ZM257.08-26.39L257.08-20.04 242.8-20.04Q241.51-20.04 240.85-19.4 240.19-18.75 240.19-17.5L240.19-17.5 240.19 0 233.84 0 233.84-17.5Q233.84-19.14 234.26-20.43 234.67-21.73 235.37-22.72 236.06-23.71 236.97-24.4 237.87-25.1 238.86-25.54 239.85-25.98 240.86-26.18 241.87-26.39 242.75-26.39L242.75-26.39 257.08-26.39ZM290.36-26.39L290.36 2.54Q290.36 4.17 289.94 5.48 289.53 6.79 288.84 7.78 288.16 8.76 287.26 9.46 286.35 10.16 285.37 10.6 284.38 11.04 283.38 11.24 282.37 11.45 281.47 11.45L281.47 11.45 270.02 11.45 270.02 5.1 281.47 5.1Q282.74 5.1 283.38 4.44 284.01 3.78 284.01 2.54L284.01 2.54 284.01-26.39 290.36-26.39ZM281.47-6.35L281.47 0 270.02 0Q268.65 0 267.1-0.46 265.55-0.93 264.21-1.99 262.87-3.05 261.99-4.75 261.11-6.45 261.11-8.91L261.11-8.91 261.11-26.39 267.46-26.39 267.46-8.91Q267.46-7.67 268.12-7.01 268.78-6.35 270.07-6.35L270.07-6.35 281.47-6.35Z" opacity="1" transform="matrix(1,0,0,1,0,0)" fill="#db5107" class="slogan-text-1" data-fill-palette-color="secondary" id="text-1"></path></svg></g></svg></g></svg></g></svg></g><g><svg viewBox="0 0 105.76114360074355 216.22278247263125" height="216.22278247263125" width="105.76114360074355"><g><svg xmlns="http://www.w3.org/2000/svg" data-name="Layer 1" viewBox="27.5 4 45 92" x="0" y="0" height="216.22278247263125" width="105.76114360074355" class="icon-icon-0" data-fill-palette-color="accent" id="icon-0"><path d="M27.5 96h20V4h-20Zm18-90V94h-16V91.5h4v-2h-4V87h2V85h-2V82.5h4v-2h-4V78h2V76h-2V73.5h4v-2h-4V69h2V67h-2V64.5h4v-2h-4V60h2V58h-2V55.5h4v-2h-4V51h2V49h-2V46.5h4v-2h-4V42h2V40h-2V37.5h4v-2h-4V33h2V31h-2V28.5h4v-2h-4V24h2V22h-2V19.5h4v-2h-4V15h2V13h-2V10.5h4v-2h-4V6Z" fill="#db5107" data-fill-palette-color="accent"></path><path d="M66.5 34.214l-6 15.6V96h12V49.814ZM65.5 51V87h-3V51Zm2 0h3V87h-3Zm-4.544-2l1.538-4h4.012l1.538 4Zm4.78-6H65.264L66.5 39.786ZM62.5 94V89h8v5Z" fill="#db5107" data-fill-palette-color="accent"></path></svg></g></svg></g></svg></g><defs></defs></svg><rect width="395.52" height="154.2285917474983" fill="none" stroke="none" visibility="hidden"></rect></g></svg></g></svg>